<?xml version="1.0" encoding="UTF-8" standalone="no"?>
<!-- Created with Inkscape (http://www.inkscape.org/) -->

<svg
   width="1000"
   height="1000"
   viewBox="0 0 264.58333 264.58333"
   version="1.1"
   id="svg5"
   xml:space="preserve"
   sodipodi:docname="map2_v3_export.svg"
   inkscape:version="1.2.2 (732a01da63, 2022-12-09)"
   xmlns:inkscape="http://www.inkscape.org/namespaces/inkscape"
   xmlns:sodipodi="http://sodipodi.sourceforge.net/DTD/sodipodi-0.dtd"
   xmlns="http://www.w3.org/2000/svg"
   xmlns:svg="http://www.w3.org/2000/svg"><sodipodi:namedview
     id="namedview7"
     pagecolor="#ffffff"
     bordercolor="#000000"
     borderopacity="0.25"
     inkscape:showpageshadow="2"
     inkscape:pageopacity="0.0"
     inkscape:pagecheckerboard="0"
     inkscape:deskcolor="#d1d1d1"
     inkscape:document-units="mm"
     showgrid="false"
     inkscape:zoom="2.9540684"
     inkscape:cx="558.38247"
     inkscape:cy="146.91603"
     inkscape:window-width="1920"
     inkscape:window-height="1009"
     inkscape:window-x="1912"
     inkscape:window-y="-8"
     inkscape:window-maximized="1"
     inkscape:current-layer="layer4" /><defs
     id="defs2" /><g
     inkscape:groupmode="layer"
     id="layer4"
     inkscape:label="Layer 3"
     style="display:inline" /><g
     inkscape:label="Layer 1"
     inkscape:groupmode="layer"
     id="layer1"><path
       style="fill:#ff0000;fill-opacity:0.112676;stroke:#ff0000;stroke-width:0.1;stroke-linecap:round;stroke-linejoin:round;stroke-dasharray:none;stroke-opacity:0.521127;paint-order:fill markers stroke"
       d="m 24.817028,36.389045 1.845973,-1.429478 7.093247,-4.179949 2.406637,-1.26665 1.709978,1.203317 0.316664,1.963309 1.773311,1.583314 2.158137,1.989871 2.338473,1.430086 1.836645,1.583314 0.569992,1.709978 -0.610934,1.572119 0.420937,0.707851 0.926937,-0.996963 1.163035,-1.789668 -1.203317,-1.01332 0.864265,-1.263139 1.341179,0.376484 0.327857,0.886655 0.696659,-0.759992 -0.94999,-1.203317 -3.241485,-1.497919 -0.09519,-0.424373 0.535995,-0.145289 0.163435,-0.369458 -1.157479,-0.113989 -1.276311,-0.335873 -1.186747,-1.309899 -0.403045,-1.735336 -1.925664,-1.298702 -0.335872,-1.522619 1.242726,-0.783698 1.858489,0.145542 1.074788,1.085985 0.347067,0.850876 1.421858,1.511422 0.783698,0.111956 2.351101,1.679357 2.104795,1.892078 0.39185,0.07837 -0.459023,2.395884 1.242724,1.634573 0.414242,1.23153 1.074788,0.49261 -0.72772,0.570982 0.145544,0.268697 0.526197,-0.279896 0.08957,0.705331 1.287507,0.08956 1.063591,-0.134344 0.884463,0.436632 -0.190327,0.369459 0.526199,0.257507 0.996419,-0.582178 -0.335873,-0.481415 0.403046,-0.04479 0.459025,0.884464 0.492611,-0.145545 -0.80609,-1.186746 -1.455444,-0.817287 -0.447828,-1.556205 -0.615765,-0.526198 0.246306,-0.850876 0.391851,-0.279893 0.2575,0.705329 0.850874,0.111959 0.559787,0.515003 0.06717,-0.246306 -0.257503,-0.47022 0.570981,0.201523 0.08957,-0.235112 -0.839679,-0.738915 0.660548,-0.100764 0.72772,-0.436631 0.391851,0.190328 0.335873,-0.235111 1.265115,0.358264 0.750113,0.324676 0.828482,0.246306 0.962832,-0.884463 1.030007,-0.03359 0.985223,-0.839676 -1.085985,-0.649354 -0.02238,-0.906851 -0.694135,-0.828485 1.388269,-2.015228 0.111958,-2.082403 1.5674,-1.119574 0.291089,-1.679355 1.27631,-1.298705 1.410661,-0.94044 0.537395,0.873266 0.895657,0.447829 1.880881,-0.02239 -2.015228,1.410662 0.918048,0.582176 1.119571,0.626959 -0.403045,0.806093 0.895657,0.47022 1.545008,-1.209138 2.418276,-0.380653 0.291089,-0.962832 -2.194361,0.08956 -0.895657,-1.567399 3.11241,-1.500226 2.261534,-0.716527 1.634575,-0.145543 -1.115604,0.858752 -1.078756,0.316797 0.447829,0.918049 -0.806093,1.925664 -1.030007,-0.111956 -0.358262,0.850873 3.470672,1.948056 2.216753,2.104795 1.791314,1.074788 0.716526,1.209138 -1.74653,2.149578 -4.120026,0.47022 -2.3511,-1.119571 -3.716978,-1.477836 -5.105247,1.880881 -3.336324,-0.13435 -1.455444,1.343488 -2.283925,0.716526 -0.532779,0.656189 -0.07179,1.000776 1.186746,-0.291088 -0.492612,0.72772 0.806093,0.436635 -0.425437,0.962831 -0.694136,0.660547 1.455442,1.880882 1.477836,0.794896 1.365877,0.425437 0.223914,0.985223 1.343487,0.06717 1.074789,-1.343486 1.679358,0.08957 1.231528,1.43305 2.01523,-0.313479 1.209138,-1.209138 1.052398,0.694135 0.873266,-0.738918 0.133345,4.731069 -1.449397,4.379258 -2.067141,1.892855 -4.015177,-1.071189 -3.430967,1.355279 -10.217299,-3.641622 -3.360919,0.748768 -0.352024,2.584229 -2.023404,1.458988 -7.22565,-4.458199 -6.201941,-1.997633 1.579008,-3.133619 -1.429658,-1.099867 0.89602,-3.228549 -14.028605,1.760821 -0.173475,42.5779 0.08297,28.907661 57.064733,0.11878 7.281762,-9.57016 8.621269,-7.950301 3.774728,-6.507799 0.75153,-4.051586 -9.873693,1.639069 -1.323103,0.429137 -1.741901,-3.358864 -5.91509,-5.272859 -5.7919,-12.349002 -2.766829,-7.945979 1.628814,-3.397077 -0.215819,2.785741 3.93541,6.420796 2.858782,3.064073 0.159584,2.840553 2.54167,2.793556 4.79757,10.945655 9.827545,-3.456771 7.622,-3.753519 7.65447,-8.310752 -1.62612,-2.540264 -3.55949,-1.748518 -0.29085,-2.584178 -3.1272,2.454588 -4.03424,0.499166 -5.541641,-7.527315 2.012341,-2.825091 3.27702,4.141901 3.81235,1.991103 4.34149,-0.76099 1.18272,2.371008 6.21019,1.275159 7.2818,-1.031367 3.23193,3.902883 3.41281,1.092337 -2.25504,0.812888 2.82283,2.693606 2.90867,-0.09063 1.29031,7.828618 3.18519,7.195805 3.2963,5.844479 3.33734,-3.997655 0.67737,-3.61766 0.0182,-3.70771 1.13176,-1.307359 2.16191,-1.297057 7.43864,-6.705988 3.79452,-1.608182 2.71442,-1.656877 2.06543,3.552204 2.60382,2.475632 0.19162,5.11474 1.82849,0.08096 2.50616,-2.171336 2.53717,6.675645 -0.30697,7.870361 2.27431,1.919558 0.97102,2.603551 1.28745,3.624854 2.97852,2.80401 1.80942,-0.17278 -1.32453,-2.75235 -0.41779,-3.671778 -4.26042,-3.162338 -1.57313,-3.286053 0.23737,-2.114269 1.00279,-4.701335 6.75923,5.686041 0.55204,2.603532 3.17181,-2.916379 3.60279,-1.894879 -0.14077,-5.871019 -5.44926,-5.795359 0.20085,-1.679568 3.86384,-3.249393 2.18214,0.162799 -0.11236,1.26921 0.68165,0.986315 0.67256,-0.380677 -0.22028,-1.098129 10.89638,-4.451917 3.87893,-1.759942 0.74515,-3.928358 5.65087,-5.466858 -0.11881,-43.458297 H 24.817028 Z"
       id="path356"
       sodipodi:nodetypes="ccccccccccccccccccccccccccccccccccccccccccccccccccccccccccccccccccccccccccccccccccccccccccccccccccccccccccccccccccccccccccccccccccccccccccccccccccccccccccccccccccccccccccccccccccccccccccccccccccccccccccccccccccccccccccccccccccccccccccccccccccccccccc" /><path
       style="fill:#ff6600;fill-opacity:0.112676;stroke:#ff6600;stroke-width:0.1;stroke-linecap:round;stroke-linejoin:round;stroke-dasharray:none;stroke-opacity:0.521127;paint-order:fill markers stroke"
       d="m 41.133067,43.305036 1.186747,-0.604568 1.970444,0.31348 1.646333,-0.222092 -0.370021,0.9834 -0.223903,1.992836 -2.3511,-1.030005 z"
       id="path13750"
       sodipodi:nodetypes="cccccccc" /><path
       style="fill:#ff6600;fill-opacity:0.112676;stroke:#ff6600;stroke-width:0.1;stroke-linecap:round;stroke-linejoin:round;stroke-dasharray:none;stroke-opacity:0.521127;paint-order:fill markers stroke"
       d="m 54.925147,43.287793 0.395828,-0.474995 0.728324,-0.142496 1.25082,0.474992 1.171651,0.80749 -0.348329,1.029155 v 1.187484 l -0.902488,-0.775824 -0.237498,0.316664 -0.80749,-0.791657 -0.126664,0.664993 -0.60166,-0.965822 0.411663,-0.506661 z"
       id="path13752"
       sodipodi:nodetypes="cccccccccccccc" /><path
       style="fill:#ff6600;fill-opacity:0.112676;stroke:#ff6600;stroke-width:0.1;stroke-linecap:round;stroke-linejoin:round;stroke-dasharray:none;stroke-opacity:0.521127;paint-order:fill markers stroke"
       d="m 35.132163,34.146939 1.343485,-1.030007 0.201523,1.410661 -0.47022,1.589791 -0.537395,-0.380653 z"
       id="path13754" /><path
       style="fill:#ff6600;fill-opacity:0.112676;stroke:#ff6600;stroke-width:0.1;stroke-linecap:round;stroke-linejoin:round;stroke-dasharray:none;stroke-opacity:0.521127;paint-order:fill markers stroke"
       d="m 34.572376,37.348914 0.76131,-0.134348 0.94044,-0.716526 0.80609,1.589791 -0.380653,2.664582 -1.23153,0.537393 -0.47022,-1.545008 z"
       id="path13756" /><path
       style="fill:#ff6600;fill-opacity:0.112676;stroke:#ff6600;stroke-width:0.1;stroke-linecap:round;stroke-linejoin:round;stroke-dasharray:none;stroke-opacity:0.521127;paint-order:fill markers stroke"
       d="m 25.503845,39.755992 1.17555,-0.649351 0.358264,0.649351 -0.425439,0.794898 z"
       id="path13758" /><path
       style="fill:#ff6600;fill-opacity:0.112676;stroke:#ff6600;stroke-width:0.1;stroke-linecap:round;stroke-linejoin:round;stroke-dasharray:none;stroke-opacity:0.521127;paint-order:fill markers stroke"
       d="m 27.787772,38.92751 0.582176,0.100762 0.04478,0.47022 z"
       id="path13760" /><path
       style="fill:#ff6600;fill-opacity:0.112676;stroke:#ff6600;stroke-width:0.1;stroke-linecap:round;stroke-linejoin:round;stroke-dasharray:none;stroke-opacity:0.521127;paint-order:fill markers stroke"
       d="m 23.566986,41.17785 0.414241,-0.29109 -0.06717,0.492612 z"
       id="path13762" /><path
       style="fill:#ff6600;fill-opacity:0.112676;stroke:#ff6600;stroke-width:0.1;stroke-linecap:round;stroke-linejoin:round;stroke-dasharray:none;stroke-opacity:0.521127;paint-order:fill markers stroke"
       d="m 58.844693,47.984846 4.052847,0.425437 -0.403045,0.559787 -3.806544,-0.537396 z"
       id="path13764" /><path
       style="fill:#ff6600;fill-opacity:0.112676;stroke:#ff6600;stroke-width:0.1;stroke-linecap:round;stroke-linejoin:round;stroke-dasharray:none;stroke-opacity:0.521127;paint-order:fill markers stroke"
       d="m 65.390849,46.422754 0.538327,-0.237498 -0.0475,0.886656 -0.60166,-0.158332 z"
       id="path13766" /><path
       style="fill:#ff6600;fill-opacity:0.112676;stroke:#ff6600;stroke-width:0.1;stroke-linecap:round;stroke-linejoin:round;stroke-dasharray:none;stroke-opacity:0.521127;paint-order:fill markers stroke"
       d="m 72.515761,48.829391 1.029155,-0.680826 2.248305,-0.364162 -0.823323,1.345816 -1.773311,0.664993 z"
       id="path13768" /><path
       style="fill:#ff6600;fill-opacity:0.708475;stroke:#ff6600;stroke-width:0.1;stroke-linecap:round;stroke-linejoin:round;stroke-dasharray:none;stroke-opacity:0.521127;paint-order:fill markers stroke"
       d="m 147.31149,92.212183 -0.69665,3.926617 1.07665,1.899976 2.5333,-0.06333 0.12667,-2.723298 -1.58332,-1.836645 z"
       id="path13939" /><path
       style="fill:#ff6600;fill-opacity:0.708475;stroke:#ff6600;stroke-width:0.1;stroke-linecap:round;stroke-linejoin:round;stroke-dasharray:none;stroke-opacity:0.521127;paint-order:fill markers stroke"
       d="m 171.2512,99.115429 3.73662,3.926621 3.03996,4.43328 4.49661,6.77658 3.41996,2.59663 2.40663,-0.69666 -0.18999,-3.60995 -3.16663,-3.48329 -0.19,-1.70998 -3.60996,-3.03996 -2.46996,-0.75999 -2.21664,-2.59664 -1.70998,-1.456646 z"
       id="path13941" /><path
       style="fill:#ff6600;fill-opacity:0.708475;stroke:#ff6600;stroke-width:0.1;stroke-linecap:round;stroke-linejoin:round;stroke-dasharray:none;stroke-opacity:0.521127;paint-order:fill markers stroke"
       d="m 187.28196,110.52412 1.43306,1.92567 0.85087,-0.15674 -1.32109,-2.28393 z"
       id="path13943" /><path
       style="fill:#ff6600;fill-opacity:0.708475;stroke:#ff6600;stroke-width:0.1;stroke-linecap:round;stroke-linejoin:round;stroke-dasharray:none;stroke-opacity:0.521127;paint-order:fill markers stroke"
       d="m 190.70785,111.6437 -0.0224,1.18674 0.85087,-0.2687 0.2687,-0.69413 z"
       id="path13945" /><path
       style="fill:#ff6600;fill-opacity:0.708475;stroke:#ff6600;stroke-width:0.1;stroke-linecap:round;stroke-linejoin:round;stroke-dasharray:none;stroke-opacity:0.521127;paint-order:fill markers stroke"
       d="m 172.011,103.44843 1.18675,0.515 -1.07479,-0.94044 z"
       id="path13947" /><path
       style="fill:#ff6600;fill-opacity:0.708475;stroke:#ff6600;stroke-width:0.1;stroke-linecap:round;stroke-linejoin:round;stroke-dasharray:none;stroke-opacity:0.521127;paint-order:fill markers stroke"
       d="m 174.29493,105.48605 1.07479,1.3211 0.20152,-0.69414 z"
       id="path13949" /><path
       style="fill:#ff6600;fill-opacity:0.708475;stroke:#ff6600;stroke-width:0.1;stroke-linecap:round;stroke-linejoin:round;stroke-dasharray:none;stroke-opacity:0.521127;paint-order:fill markers stroke"
       d="m 176.15342,108.53129 0.31348,-0.71653 0.0672,0.82848 z"
       id="path13951" /><path
       style="fill:#ff6600;fill-opacity:0.708475;stroke:#ff6600;stroke-width:0.1;stroke-linecap:round;stroke-linejoin:round;stroke-dasharray:none;stroke-opacity:0.521127;paint-order:fill markers stroke"
       d="m 176.53408,109.40455 0.98522,1.09718 -0.38065,-1.36587 z"
       id="path13953" /><path
       style="fill:#ff6600;fill-opacity:0.708475;stroke:#ff6600;stroke-width:0.1;stroke-linecap:round;stroke-linejoin:round;stroke-dasharray:none;stroke-opacity:0.521127;paint-order:fill markers stroke"
       d="m 177.98028,111.02195 1.29832,1.67831 0.20583,-0.34833 z"
       id="path13955" /><path
       style="fill:#ff6600;fill-opacity:0.708475;stroke:#ff6600;stroke-width:0.1;stroke-linecap:round;stroke-linejoin:round;stroke-dasharray:none;stroke-opacity:0.521127;paint-order:fill markers stroke"
       d="m 193.63925,104.46703 2.3433,0.72832 0.475,-1.67831 3.03996,-1.10832 5.95326,-5.604929 3.48329,2.564969 -2.78663,2.7233 2.56497,3.98995 -3.67329,3.67329 -0.91833,3.95828 -2.31163,0.44333 -0.98166,-1.20332 -3.41995,0.22166 -2.46997,-0.88665 -0.665,-2.75497 -1.29831,-1.17165 -0.41166,-2.21664 z"
       id="path13957" /><path
       style="fill:#ff6600;fill-opacity:0.708475;stroke:#ff6600;stroke-width:0.1;stroke-linecap:round;stroke-linejoin:round;stroke-dasharray:none;stroke-opacity:0.521127;paint-order:fill markers stroke"
       d="m 192.30927,76.80654 1.47248,-1.108318 1.94747,-0.237498 0.31667,0.60166 -0.665,0.617492 -0.41166,1.203318 -0.99748,0.664993 -1.40915,-0.39583 z"
       id="path13959" /><path
       style="fill:#ff6600;fill-opacity:0.708475;stroke:#ff6600;stroke-width:0.1;stroke-linecap:round;stroke-linejoin:round;stroke-dasharray:none;stroke-opacity:0.521127;paint-order:fill markers stroke"
       d="m 212.29068,66.799999 -1.88414,2.089975 -0.095,1.377482 1.02915,2.058308 0.25334,-0.269164 0.80749,-1.678313 0.64915,-2.469967 0.0633,-1.187487 z"
       id="path13961" /><path
       style="fill:#ff6600;fill-opacity:0.708475;stroke:#ff6600;stroke-width:0.1;stroke-linecap:round;stroke-linejoin:round;stroke-dasharray:none;stroke-opacity:0.521127;paint-order:fill markers stroke"
       d="m 211.43569,77.962359 2.31164,0.158332 0.12667,2.8183 -1.51998,1.86831 0.75999,2.564966 -0.88666,0.728324 -1.13999,-0.474993 -1.13998,-2.374972 z"
       id="path13963" /><path
       style="fill:#ff6600;fill-opacity:0.708475;stroke:#ff6600;stroke-width:0.1;stroke-linecap:round;stroke-linejoin:round;stroke-dasharray:none;stroke-opacity:0.521127;paint-order:fill markers stroke"
       d="m 205.79968,93.999245 3.6722,-4.120023 0.29109,1.253918 z"
       id="path13965" /><path
       style="fill:#ff6600;fill-opacity:0.708475;stroke:#ff6600;stroke-width:0.1;stroke-linecap:round;stroke-linejoin:round;stroke-dasharray:none;stroke-opacity:0.521127;paint-order:fill markers stroke"
       d="m 213.23364,96.70861 1.16435,-2.77654 1.64358,-0.08956 v 1.858489 l -1.64358,0.156739 z"
       id="path13967" /><path
       style="fill:#ff6600;fill-opacity:0.708475;stroke:#ff6600;stroke-width:0.1;stroke-linecap:round;stroke-linejoin:round;stroke-dasharray:none;stroke-opacity:0.521127;paint-order:fill markers stroke"
       d="m 213.3456,89.117912 -0.11196,2.060012 1.09718,-0.06718 0.33587,-1.701747 z"
       id="path13969" /><path
       style="fill:#ff6600;fill-opacity:0.708475;stroke:#ff6600;stroke-width:0.1;stroke-linecap:round;stroke-linejoin:round;stroke-dasharray:none;stroke-opacity:0.521127;paint-order:fill markers stroke"
       d="m 210.86015,86.207025 0.42543,1.388269 -1.25392,1.209137 3.1348,-0.985223 -0.7613,-1.231527 z"
       id="path13971" /><path
       style="fill:#ff6600;fill-opacity:0.708475;stroke:#ff6600;stroke-width:0.1;stroke-linecap:round;stroke-linejoin:round;stroke-dasharray:none;stroke-opacity:0.521127;paint-order:fill markers stroke"
       d="m 213.21125,85.624849 0.96283,0.962832 0.15674,-1.052399 1.76075,1.813706 v -1.992837 l -1.6264,-0.380653 z"
       id="path13973" /><path
       style="fill:#ff6600;fill-opacity:0.708475;stroke:#ff6600;stroke-width:0.1;stroke-linecap:round;stroke-linejoin:round;stroke-dasharray:none;stroke-opacity:0.521127;paint-order:fill markers stroke"
       d="m 214.913,89.543349 -0.58218,3.425891 0.91805,0.358262 0.62696,-1.992836 z"
       id="path13975" /><path
       style="fill:#ff6600;fill-opacity:0.708475;stroke:#ff6600;stroke-width:0.1;stroke-linecap:round;stroke-linejoin:round;stroke-dasharray:none;stroke-opacity:0.521127;paint-order:fill markers stroke"
       d="m 208.41948,112.83044 0.91805,-2.97806 0.94044,-3.42589 1.41066,-0.69413 4.35294,0.62696 v 0.98522 l -5.42773,-0.44783 -0.29109,1.85849 4.9709,-0.20152 -2.79893,2.28393 2.79893,5.10524 -0.89566,1.14355 -2.79893,-3.67378 0.0896,-1.50023 -1.27631,0.5874 0.47022,3.66698 -1.63458,0.42543 0.0896,-3.29154 z"
       id="path13977" /></g><g
     inkscape:groupmode="layer"
     id="layer6"
     inkscape:label="Layer 4"><path
       style="fill:#333333;fill-opacity:0.708475;stroke:#333333;stroke-width:0.1;stroke-linecap:round;stroke-linejoin:round;stroke-opacity:0.521127;paint-order:fill markers stroke"
       d="m 34.547902,30.177957 -1.361649,-1.488313 1.329984,-1.994977 3.229959,0.189997 5.414933,-0.569992 2.849965,-1.86831 v -2.628301 l -8.074901,0.60166 -4.686607,2.026641 -2.501635,3.039962 0.316661,2.944963 z"
       id="path14918" /><path
       style="fill:#333333;fill-opacity:0.708475;stroke:#333333;stroke-width:0.1;stroke-linecap:round;stroke-linejoin:round;stroke-opacity:0.521127;paint-order:fill markers stroke"
       d="m 36.511211,28.784642 4.74994,1.646645 -0.284996,1.234985 -3.071627,-0.981654 z"
       id="path14920" /><path
       style="fill:#333333;fill-opacity:0.708475;stroke:#333333;stroke-width:0.1;stroke-linecap:round;stroke-linejoin:round;stroke-opacity:0.521127;paint-order:fill markers stroke"
       d="m 81.88898,28.879641 10.7032,3.863284 5.383265,2.596634 1.456648,2.46997 -7.219908,-2.976631 -5.319934,-1.26665 -3.039962,-2.343304 z"
       id="path14976" /><path
       style="fill:#333333;fill-opacity:0.708475;stroke:#333333;stroke-width:0.1;stroke-linecap:round;stroke-linejoin:round;stroke-opacity:0.521127;paint-order:fill markers stroke"
       d="m 128.88173,37.746196 7.40991,-4.74994 9.30988,-0.696659 6.64991,-2.406636 8.1699,2.153306 -2.3433,2.7233 -9.37322,0.886656 -9.05655,4.433276 4.87661,4.876607 3.60995,1.01332 -4.68661,1.519981 4.17995,5.509932 -2.27997,1.519981 11.58985,6.396588 10.7032,0.189997 4.30662,-3.673287 -2.21664,5.319932 -10.06988,1.329984 -13.93316,-5.573263 -7.5999,-6.333255 -5.57326,-3.483289 -4.62328,1.203317 0.44333,-2.27997 5.4466,-3.293293 -6.90325,-2.849965 z"
       id="path14978" /><path
       style="fill:#333333;fill-opacity:0.708475;stroke:#333333;stroke-width:0.1;stroke-linecap:round;stroke-linejoin:round;stroke-opacity:0.521127;paint-order:fill markers stroke"
       d="m 144.5882,29.512966 4.68661,-3.989951 2.65996,2.596634 -6.71325,2.343304 z"
       id="path14980" /><path
       style="fill:#333333;fill-opacity:0.708475;stroke:#333333;stroke-width:0.1;stroke-linecap:round;stroke-linejoin:round;stroke-opacity:0.521127;paint-order:fill markers stroke"
       d="m 150.35146,16.149799 10.57654,6.586584 6.58658,3.926618 13.10983,3.673288 5.00328,0.886655 -10.38654,-5.003271 -8.80323,-6.143257 -1.64664,-5.256601 z"
       id="path14982" /><path
       style="fill:#333333;fill-opacity:0.708475;stroke:#333333;stroke-width:0.1;stroke-linecap:round;stroke-linejoin:round;stroke-opacity:0.521127;paint-order:fill markers stroke"
       d="m 168.97123,68.652476 4.49661,-7.346574 2.40663,-1.01332 5.8266,-3.863287 3.73662,-6.01659 2.9133,3.229959 -4.43328,7.599905 -1.77331,7.726571 -6.71325,-5.699929 -5.6366,5.763263 -0.19,5.699929 1.45665,4.053282 -2.27997,-2.596634 z"
       id="path14984" /><path
       style="fill:#999999;fill-opacity:0.708475;stroke:#999999;stroke-width:0.1;stroke-linecap:round;stroke-linejoin:round;stroke-opacity:0.521127;paint-order:fill markers stroke"
       d="m 86.162244,44.335043 6.448735,3.045235 5.642641,7.075694 7.16526,7.165258 6.17724,1.164516 4.84478,3.194997 2.33424,-4.64452 -0.92623,-13.663365 -2.69153,-4.250501 -4.65998,-1.666621 -1.85415,10.461091 -9.673104,-7.79222 -6.269603,-7.702653 -5.373944,-0.985223 -4.746984,3.045236 -5.380698,3.784517 -6.186964,0.02787 -6.793315,-0.811933 2.376923,3.597926 4.832399,-0.02879 3.933996,0.26134 3.147501,-2.085766 4.652446,-0.178345 z"
       id="path15051"
       sodipodi:nodetypes="cccccccccccccccccccccccc" /><path
       style="fill:#999999;fill-opacity:0.708475;stroke:#999999;stroke-width:0.1;stroke-linecap:round;stroke-linejoin:round;stroke-opacity:0.521127;paint-order:fill markers stroke"
       d="m 47.73854,30.765832 3.761761,3.537847 1.477836,1.07479 1.030007,4.567851 2.68697,1.477836 0.895657,-1.164355 -1.209135,-2.149578 3.090016,-0.985224 3.627413,-0.895657 -0.537395,-2.149578 -8.329612,-2.821321 -6.180037,-1.925663 -3.806544,-2.866102 z"
       id="path15269" /><path
       style="fill:#999999;fill-opacity:0.708475;stroke:#999999;stroke-width:0.1;stroke-linecap:round;stroke-linejoin:round;stroke-opacity:0.521127;paint-order:fill markers stroke"
       d="m 46.739418,40.184498 -0.728324,-1.709978 -4.401614,-2.976629 1.20332,-1.86831 3.609954,3.926618 1.329984,2.944963 z"
       id="path15271" /><path
       style="fill:#999999;fill-opacity:0.708475;stroke:#999999;stroke-width:0.1;stroke-linecap:round;stroke-linejoin:round;stroke-opacity:0.521127;paint-order:fill markers stroke"
       d="m 35.300099,34.158134 1.063594,-0.738915 0.111955,1.242724 -0.347067,1.231529 -0.414242,-0.447828 z"
       id="path15273" /><path
       style="fill:#999999;fill-opacity:0.708475;stroke:#999999;stroke-width:0.1;stroke-linecap:round;stroke-linejoin:round;stroke-opacity:0.521127;paint-order:fill markers stroke"
       d="m 25.056016,31.437577 3.336323,-3.87372 2.30632,-3.201975 -0.06717,3.985677 0.335873,2.97806 h -3.313933 l -2.216753,0.806092 z"
       id="path15275" /><path
       style="fill:#999999;fill-opacity:0.708475;stroke:#999999;stroke-width:0.1;stroke-linecap:round;stroke-linejoin:round;stroke-opacity:0.521127;paint-order:fill markers stroke"
       d="m 56.784681,20.107509 3.58263,3.000453 0.985221,2.955669 -3.627411,0.806092 -2.194361,2.015228 0.626962,0.537395 5.687422,-1.477835 2.060014,-1.701748 -1.522619,-4.299156 -4.120022,-3.26915 -4.702202,-1.5674 -4.164809,1.030006 3.179586,3.493064 2.64219,-1.880881 z"
       id="path15277" /><path
       style="fill:#999999;fill-opacity:0.708475;stroke:#999999;stroke-width:0.1;stroke-linecap:round;stroke-linejoin:round;stroke-opacity:0.521127;paint-order:fill markers stroke"
       d="m 148.5,46.126357 14.33052,-5.373944 11.28528,-1.522619 9.58354,4.657421 0.89566,6.717429 -2.77654,5.28438 -7.79222,4.926116 -2.14958,-3.672197 -4.56785,3.672197 -9.76267,-0.537395 -9.6731,-4.746985 0.5374,-2.597407 -2.77654,-4.657418 z"
       id="path15279" /><path
       style="fill:#999999;fill-opacity:0.708475;stroke:#999999;stroke-width:0.1;stroke-linecap:round;stroke-linejoin:round;stroke-opacity:0.521127;paint-order:fill markers stroke"
       d="m 187.7298,51.231604 2.23914,2.77654 -3.31393,7.344388 -4.74699,8.329615 -6.71743,-4.478287 -4.03046,7.79222 6.09047,9.852231 13.0766,-10.300059 10.74789,-6.09047 2.32871,-10.568758 -6.2696,-6.180037 z"
       id="path15281" /><path
       style="fill:#999999;fill-opacity:0.708475;stroke:#999999;stroke-width:0.1;stroke-linecap:round;stroke-linejoin:round;stroke-opacity:0.521127;paint-order:fill markers stroke"
       d="m 209.98688,24.899277 -5.7322,9.225271 -2.19436,6.314384 5.86655,-1.701747 8.15032,-6.717432 -0.0642,-17.248935 -48.33883,10e-7 8.18157,10.423743 6.31144,0.889115 1.01673,-4.372705 21.32683,-4.844937 z"
       id="path15283"
       sodipodi:nodetypes="cccccccccccc" /><path
       style="fill:#999999;fill-opacity:0.708475;stroke:#999999;stroke-width:0.1;stroke-linecap:round;stroke-linejoin:round;stroke-opacity:0.521127;paint-order:fill markers stroke"
       d="m 77.474367,58.665562 7.613089,8.59831 3.403497,9.6731 5.821775,6.717432 7.433952,-2.418276 -4.836548,4.120026 -6.09047,1.791314 -6.09047,-12.897467 -1.253919,-3.58263 -6.806999,-9.762667 z"
       id="path15285" /><path
       style="fill:#999999;fill-opacity:0.708475;stroke:#999999;stroke-width:0.1;stroke-linecap:round;stroke-linejoin:round;stroke-opacity:0.521127;paint-order:fill markers stroke"
       d="M 80.698733,79.534379 75.414356,91.08836 75.862184,103.71713 88.311822,96.462304 84.99789,88.938782 Z"
       id="path15287" /><path
       style="fill:#999999;fill-opacity:0.708475;stroke:#999999;stroke-width:0.1;stroke-linecap:round;stroke-linejoin:round;stroke-opacity:0.521127;paint-order:fill markers stroke"
       d="m 123.42668,47.841928 3.41193,0.381701 1.39331,3.717666 5.43458,-1.809039 -1.46238,10.114528 -5.11417,6.642487 -0.8969,-1.642555 -8.25703,0.556806 4.28152,-5.064127 2.73176,-3.627413 -6.0009,-4.030458 1.07815,-3.915721 z"
       id="path15776"
       sodipodi:nodetypes="ccccccccccccc" /></g><g
     inkscape:groupmode="layer"
     id="layer2"
     inkscape:label="Layer 2"><rect
       style="display:inline;fill:none;fill-opacity:0.112676;stroke:#00ff00;stroke-width:0.237572;stroke-linecap:round;stroke-linejoin:round;stroke-dasharray:none;stroke-opacity:0.521127;paint-order:fill markers stroke"
       id="rect13822"
       width="191.22455"
       height="102.34421"
       x="24.817028"
       y="14.742199" /><circle
       style="fill:#00ff00;fill-opacity:0.708475;stroke:#00ff00;stroke-width:0.1;stroke-linecap:round;stroke-linejoin:round;stroke-opacity:0.521127;paint-order:fill markers stroke"
       id="path14287"
       cx="41.491329"
       cy="27.205593"
       r="1.7017491" /><circle
       style="fill:#0000ff;fill-opacity:0.708475;stroke:#0000ff;stroke-width:0.1;stroke-linecap:round;stroke-linejoin:round;stroke-opacity:0.521127;paint-order:fill markers stroke"
       id="circle14289"
       cx="67.331047"
       cy="36.81152"
       r="1.7017491" /><circle
       style="fill:#0000ff;fill-opacity:0.708475;stroke:#0000ff;stroke-width:0.1;stroke-linecap:round;stroke-linejoin:round;stroke-opacity:0.521127;paint-order:fill markers stroke"
       id="circle14291"
       cx="84.214188"
       cy="36.99065"
       r="1.7017491" /><circle
       style="fill:#0000ff;fill-opacity:0.708475;stroke:#0000ff;stroke-width:0.1;stroke-linecap:round;stroke-linejoin:round;stroke-opacity:0.521127;paint-order:fill markers stroke"
       id="circle14293"
       cx="94.424683"
       cy="42.946774"
       r="1.7017491" /><circle
       style="fill:#0000ff;fill-opacity:0.708475;stroke:#0000ff;stroke-width:0.1;stroke-linecap:round;stroke-linejoin:round;stroke-opacity:0.521127;paint-order:fill markers stroke"
       id="circle14295"
       cx="114.44263"
       cy="48.410282"
       r="1.7017491" /><circle
       style="fill:#0000ff;fill-opacity:0.708475;stroke:#0000ff;stroke-width:0.1;stroke-linecap:round;stroke-linejoin:round;stroke-opacity:0.521127;paint-order:fill markers stroke"
       id="circle14297"
       cx="108.21781"
       cy="63.726025"
       r="1.7017491" /><circle
       style="fill:#0000ff;fill-opacity:0.708475;stroke:#0000ff;stroke-width:0.1;stroke-linecap:round;stroke-linejoin:round;stroke-opacity:0.521127;paint-order:fill markers stroke"
       id="circle14299"
       cx="148.34256"
       cy="95.882248"
       r="1.7017491" /><circle
       style="fill:#0000ff;fill-opacity:0.708475;stroke:#0000ff;stroke-width:0.1;stroke-linecap:round;stroke-linejoin:round;stroke-opacity:0.521127;paint-order:fill markers stroke"
       id="circle14301"
       cx="180.40709"
       cy="108.60059"
       r="1.7017491" /><circle
       style="fill:#0000ff;fill-opacity:0.708475;stroke:#0000ff;stroke-width:0.1;stroke-linecap:round;stroke-linejoin:round;stroke-opacity:0.521127;paint-order:fill markers stroke"
       id="circle14303"
       cx="207.81421"
       cy="67.042091"
       r="1.7017491" /><circle
       style="fill:#00ff00;fill-opacity:0.708475;stroke:#00ff00;stroke-width:0.1;stroke-linecap:round;stroke-linejoin:round;stroke-opacity:0.521127;paint-order:fill markers stroke"
       id="circle14305"
       cx="76.601097"
       cy="53.000526"
       r="1.7017491" /><circle
       style="fill:#00ff00;fill-opacity:0.708475;stroke:#00ff00;stroke-width:0.1;stroke-linecap:round;stroke-linejoin:round;stroke-opacity:0.521127;paint-order:fill markers stroke"
       id="circle14307"
       cx="132.66925"
       cy="45.656136"
       r="1.7017491" /><circle
       style="fill:#00ff00;fill-opacity:0.708475;stroke:#00ff00;stroke-width:0.1;stroke-linecap:round;stroke-linejoin:round;stroke-opacity:0.521127;paint-order:fill markers stroke"
       id="circle14309"
       cx="150.40327"
       cy="31.146484"
       r="1.7017491" /><circle
       style="fill:#00ff00;fill-opacity:0.708475;stroke:#00ff00;stroke-width:0.1;stroke-linecap:round;stroke-linejoin:round;stroke-opacity:0.521127;paint-order:fill markers stroke"
       id="circle14802"
       cx="170.28687"
       cy="38.670006"
       r="1.7017491" /><circle
       style="fill:#00ff00;fill-opacity:0.708475;stroke:#00ff00;stroke-width:0.1;stroke-linecap:round;stroke-linejoin:round;stroke-opacity:0.521127;paint-order:fill markers stroke"
       id="circle14804"
       cx="200.02269"
       cy="35.983032"
       r="1.7017491" /><rect
       style="fill:none;fill-opacity:0.708475;stroke:#0000ff;stroke-width:0.0712125;stroke-linecap:round;stroke-linejoin:round;stroke-opacity:0.521127;paint-order:fill markers stroke"
       id="rect14858"
       width="53.597576"
       height="30.117481"
       x="24.719664"
       y="14.727805" /><rect
       style="fill:none;fill-opacity:0.708475;stroke:#0000ff;stroke-width:0.128451;stroke-linecap:round;stroke-linejoin:round;stroke-opacity:0.521127;paint-order:fill markers stroke"
       id="rect14860"
       width="96.677605"
       height="54.324955"
       x="119.33536"
       y="14.770819" /><path
       style="fill:none;fill-opacity:0.708475;stroke:#ff6600;stroke-width:0.6;stroke-linecap:round;stroke-linejoin:round;stroke-dasharray:0.6, 1.2;stroke-dashoffset:0;stroke-opacity:0.521127;paint-order:fill markers stroke"
       d="m 27.743383,30.166704 25.58262,20.246001 17.226451,4.939938 19.569752,33.312918 13.034854,-0.286362 67.01748,26.189371 20.7492,-0.17372 11.7404,-6.85619 10.8932,-41.546148 -2.02664,-39.646174 -174.291165,-7.72657 z"
       id="path15411"
       sodipodi:nodetypes="cccccccccccc" /><rect
       style="fill:none;fill-opacity:0.708475;stroke:#0000ff;stroke-width:0.128451;stroke-linecap:round;stroke-linejoin:round;stroke-opacity:0.521127;paint-order:fill markers stroke"
       id="rect15855"
       width="96.677605"
       height="54.324955"
       x="119.33536"
       y="62.778057" /></g></svg>
